<svg width="278" height="48" viewBox="0 0 278 48" fill="none" xmlns="http://www.w3.org/2000/svg">
<path d="M0.403409 37V0.636363H12.6903C15.5313 0.636363 17.8632 1.12168 19.6861 2.09233C21.509 3.05113 22.8584 4.37097 23.7344 6.05185C24.6103 7.73272 25.0483 9.64441 25.0483 11.7869C25.0483 13.9295 24.6103 15.8293 23.7344 17.4865C22.8584 19.1437 21.5149 20.4458 19.7038 21.3928C17.8928 22.3279 15.5786 22.7955 12.7614 22.7955H2.81818V18.8182H12.6193C14.5606 18.8182 16.1231 18.5341 17.3068 17.9659C18.5024 17.3977 19.3665 16.5928 19.8991 15.5511C20.4437 14.4976 20.7159 13.2429 20.7159 11.7869C20.7159 10.331 20.4437 9.05847 19.8991 7.96946C19.3546 6.88044 18.4846 6.04001 17.2891 5.44815C16.0935 4.84446 14.5133 4.54261 12.5483 4.54261H4.80682V37H0.403409ZM17.5199 20.6648L26.4688 37H21.3551L12.5483 20.6648H17.5199ZM91.6632 37V0.636363H103.95C106.791 0.636363 109.123 1.12168 110.946 2.09233C112.769 3.05113 114.118 4.37097 114.994 6.05185C115.87 7.73272 116.308 9.64441 116.308 11.7869C116.308 13.9295 115.87 15.8293 114.994 17.4865C114.118 19.1437 112.775 20.4458 110.964 21.3928C109.153 22.3279 106.838 22.7955 104.021 22.7955H94.0779V18.8182H103.879C105.82 18.8182 107.383 18.5341 108.567 17.9659C109.762 17.3977 110.626 16.5928 111.159 15.5511C111.703 14.4976 111.976 13.2429 111.976 11.7869C111.976 10.331 111.703 9.05847 111.159 7.96946C110.614 6.88044 109.744 6.04001 108.549 5.44815C107.353 4.84446 105.773 4.54261 103.808 4.54261H96.0666V37H91.6632ZM108.78 20.6648L117.729 37H112.615L103.808 20.6648H108.78ZM194.131 37H189.515L202.867 0.636363H207.412L220.765 37H216.148L205.282 6.3892H204.998L194.131 37ZM195.836 22.7955H214.444V26.7017H195.836V22.7955ZM226.429 37V0.636363H238.716C241.568 0.636363 243.9 1.15128 245.711 2.18111C247.534 3.1991 248.884 4.57812 249.76 6.31818C250.636 8.05824 251.074 9.99953 251.074 12.142C251.074 14.2846 250.636 16.2318 249.76 17.9837C248.896 19.7356 247.558 21.1323 245.747 22.174C243.936 23.2038 241.616 23.7188 238.787 23.7188H229.98V19.8125H238.645C240.598 19.8125 242.166 19.4751 243.35 18.8004C244.534 18.1257 245.392 17.2143 245.925 16.0661C246.469 14.906 246.741 13.598 246.741 12.142C246.741 10.6861 246.469 9.384 245.925 8.23579C245.392 7.08759 244.528 6.18797 243.332 5.53693C242.137 4.87405 240.55 4.54261 238.574 4.54261H230.832V37H226.429ZM262.57 0.636363V37H258.167V0.636363H262.57ZM273.885 37.2841C273.009 37.2841 272.258 36.9704 271.63 36.343C271.003 35.7157 270.689 34.964 270.689 34.0881C270.689 33.2121 271.003 32.4605 271.63 31.8331C272.258 31.2057 273.009 30.892 273.885 30.892C274.761 30.892 275.513 31.2057 276.14 31.8331C276.768 32.4605 277.081 33.2121 277.081 34.0881C277.081 34.6681 276.933 35.2008 276.637 35.6861C276.353 36.1714 275.969 36.562 275.483 36.858C275.01 37.142 274.477 37.2841 273.885 37.2841Z" fill="#168700"/>
<path d="M42.9593 37.5682C40.3315 37.5682 38.0647 36.9882 36.1589 35.8281C34.265 34.6562 32.8031 33.0227 31.7733 30.9276C30.7553 28.8205 30.2463 26.3703 30.2463 23.5767C30.2463 20.7831 30.7553 18.321 31.7733 16.1903C32.8031 14.0478 34.2354 12.3788 36.0701 11.1832C37.9167 9.97585 40.0711 9.37216 42.5332 9.37216C43.9537 9.37216 45.3564 9.6089 46.7413 10.0824C48.1262 10.5559 49.3869 11.3253 50.5233 12.3906C51.6596 13.4441 52.5652 14.8409 53.2399 16.581C53.9146 18.321 54.252 20.4635 54.252 23.0085V24.7841H33.2292V21.1619H49.9906C49.9906 19.6231 49.6828 18.25 49.0673 17.0426C48.4636 15.8352 47.5995 14.8823 46.475 14.1839C45.3623 13.4856 44.0484 13.1364 42.5332 13.1364C40.8642 13.1364 39.42 13.5507 38.2008 14.3793C36.9934 15.196 36.0642 16.2614 35.4132 17.5753C34.7621 18.8892 34.4366 20.2978 34.4366 21.8011V24.2159C34.4366 26.2756 34.7917 28.0215 35.502 29.4538C36.224 30.8743 37.2243 31.9574 38.5027 32.7031C39.7811 33.437 41.2666 33.804 42.9593 33.804C44.0602 33.804 45.0545 33.6501 45.9423 33.3423C46.8419 33.0227 47.6172 32.5492 48.2683 31.9219C48.9193 31.2827 49.4224 30.4896 49.7775 29.5426L53.8258 30.679C53.3997 32.0521 52.6835 33.2595 51.6774 34.3011C50.6712 35.331 49.4283 36.1359 47.9487 36.7159C46.469 37.2841 44.8059 37.5682 42.9593 37.5682ZM79.2342 47.2273V32.8097H78.8791C78.5713 33.3068 78.1333 33.9342 77.5652 34.6918C76.997 35.4375 76.1861 36.1063 75.1326 36.6982C74.0791 37.2782 72.6764 37.5682 70.9245 37.5682C68.6518 37.5682 66.6454 36.9941 64.9054 35.8459C63.1653 34.6858 61.804 33.0523 60.8216 30.9453C59.8391 28.8265 59.3478 26.3229 59.3478 23.4347C59.3478 20.5701 59.8391 18.0843 60.8216 15.9773C61.804 13.8703 63.1712 12.2427 64.9231 11.0945C66.675 9.94626 68.6992 9.37216 70.9956 9.37216C72.7711 9.37216 74.1738 9.66809 75.2037 10.2599C76.2453 10.84 77.0384 11.5028 77.5829 12.2486C78.1393 12.9825 78.5713 13.5862 78.8791 14.0597H79.3762V9.72727H83.4245V47.2273H79.2342ZM71.4927 33.804C73.1736 33.804 74.594 33.366 75.7541 32.4901C76.9141 31.6023 77.796 30.3771 78.3997 28.8146C79.0034 27.2403 79.3052 25.4233 79.3052 23.3636C79.3052 21.3277 79.0093 19.5462 78.4174 18.0192C77.8256 16.4804 76.9496 15.2848 75.7896 14.4325C74.6296 13.5684 73.1973 13.1364 71.4927 13.1364C69.7172 13.1364 68.2375 13.5921 67.0538 14.5036C65.8819 15.4032 65.0001 16.6283 64.4082 18.179C63.8282 19.7178 63.5382 21.446 63.5382 23.3636C63.5382 25.3049 63.8341 27.0687 64.426 28.6548C65.0297 30.2292 65.9174 31.4839 67.0893 32.419C68.273 33.3423 69.7408 33.804 71.4927 33.804ZM134.219 37.5682C131.591 37.5682 129.324 36.9882 127.419 35.8281C125.525 34.6562 124.063 33.0227 123.033 30.9276C122.015 28.8205 121.506 26.3703 121.506 23.5767C121.506 20.7831 122.015 18.321 123.033 16.1903C124.063 14.0478 125.495 12.3788 127.33 11.1832C129.176 9.97585 131.331 9.37216 133.793 9.37216C135.213 9.37216 136.616 9.6089 138.001 10.0824C139.386 10.5559 140.647 11.3253 141.783 12.3906C142.919 13.4441 143.825 14.8409 144.5 16.581C145.174 18.321 145.512 20.4635 145.512 23.0085V24.7841H124.489V21.1619H141.25C141.25 19.6231 140.943 18.25 140.327 17.0426C139.723 15.8352 138.859 14.8823 137.735 14.1839C136.622 13.4856 135.308 13.1364 133.793 13.1364C132.124 13.1364 130.68 13.5507 129.461 14.3793C128.253 15.196 127.324 16.2614 126.673 17.5753C126.022 18.8892 125.696 20.2978 125.696 21.8011V24.2159C125.696 26.2756 126.051 28.0215 126.762 29.4538C127.484 30.8743 128.484 31.9574 129.762 32.7031C131.041 33.437 132.526 33.804 134.219 33.804C135.32 33.804 136.314 33.6501 137.202 33.3423C138.102 33.0227 138.877 32.5492 139.528 31.9219C140.179 31.2827 140.682 30.4896 141.037 29.5426L145.086 30.679C144.659 32.0521 143.943 33.2595 142.937 34.3011C141.931 35.331 140.688 36.1359 139.208 36.7159C137.729 37.2841 136.066 37.5682 134.219 37.5682ZM171.204 15.8352L167.44 16.9006C167.203 16.2732 166.854 15.6636 166.392 15.0717C165.943 14.468 165.327 13.9709 164.546 13.5803C163.765 13.1896 162.764 12.9943 161.545 12.9943C159.876 12.9943 158.485 13.379 157.373 14.1484C156.272 14.906 155.721 15.8707 155.721 17.0426C155.721 18.0843 156.1 18.907 156.858 19.5107C157.615 20.1143 158.799 20.6174 160.409 21.0199L164.457 22.0142C166.895 22.6061 168.712 23.5116 169.908 24.7308C171.104 25.9382 171.701 27.4948 171.701 29.4006C171.701 30.9631 171.252 32.3598 170.352 33.5909C169.464 34.822 168.221 35.7926 166.623 36.5028C165.025 37.2131 163.167 37.5682 161.048 37.5682C158.266 37.5682 155.964 36.9645 154.141 35.7571C152.318 34.5497 151.164 32.786 150.679 30.4659L154.656 29.4716C155.035 30.9394 155.751 32.0402 156.804 32.7741C157.87 33.508 159.261 33.875 160.977 33.875C162.93 33.875 164.481 33.4607 165.629 32.6321C166.789 31.7917 167.369 30.7855 167.369 29.6136C167.369 28.6667 167.038 27.8736 166.375 27.2344C165.712 26.5833 164.694 26.098 163.321 25.7784L158.775 24.7131C156.278 24.1212 154.443 23.2038 153.271 21.9609C152.111 20.7062 151.531 19.1378 151.531 17.2557C151.531 15.7169 151.963 14.3556 152.827 13.1719C153.703 11.9882 154.893 11.0589 156.396 10.3842C157.911 9.70952 159.627 9.37216 161.545 9.37216C164.244 9.37216 166.363 9.96401 167.902 11.1477C169.452 12.3314 170.553 13.8939 171.204 15.8352Z" fill="black"/>
</svg>
