<svg width="60" height="56" viewBox="0 0 60 56" fill="none" xmlns="http://www.w3.org/2000/svg">
<g filter="url(#filter0_d_2848_11070)">
<path d="M4.59091 47V0.454544H22.0455C25.6212 0.454544 28.6212 1.07576 31.0455 2.31818C33.4849 3.5606 35.3258 5.30303 36.5682 7.54545C37.8258 9.77273 38.4545 12.3712 38.4545 15.3409C38.4545 18.3258 37.8182 20.9167 36.5455 23.1136C35.2879 25.2955 33.4318 26.9848 30.9773 28.1818C28.5227 29.3636 25.5076 29.9545 21.9318 29.9545H9.5V22.9545H20.7955C22.8864 22.9545 24.5985 22.6667 25.9318 22.0909C27.2652 21.5 28.25 20.6439 28.8864 19.5227C29.5379 18.3864 29.8636 16.9924 29.8636 15.3409C29.8636 13.6894 29.5379 12.2803 28.8864 11.1136C28.2348 9.93182 27.2424 9.03788 25.9091 8.43182C24.5758 7.81061 22.8561 7.5 20.75 7.5H13.0227V47H4.59091ZM28.6364 25.9091L40.1591 47H30.75L19.4318 25.9091H28.6364ZM50.9205 47.5C49.5417 47.5 48.3598 47.0152 47.375 46.0455C46.3902 45.0758 45.9053 43.8939 45.9205 42.5C45.9053 41.1364 46.3902 39.9697 47.375 39C48.3598 38.0303 49.5417 37.5455 50.9205 37.5455C52.2538 37.5455 53.4129 38.0303 54.3977 39C55.3977 39.9697 55.9053 41.1364 55.9205 42.5C55.9053 43.4242 55.6629 44.2652 55.1932 45.0227C54.7386 45.7803 54.1326 46.3864 53.375 46.8409C52.6326 47.2803 51.8144 47.5 50.9205 47.5Z" fill="#00B342"/>
<path d="M4.59091 47V0.454544H22.0455C25.6212 0.454544 28.6212 1.07576 31.0455 2.31818C33.4849 3.5606 35.3258 5.30303 36.5682 7.54545C37.8258 9.77273 38.4545 12.3712 38.4545 15.3409C38.4545 18.3258 37.8182 20.9167 36.5455 23.1136C35.2879 25.2955 33.4318 26.9848 30.9773 28.1818C28.5227 29.3636 25.5076 29.9545 21.9318 29.9545H9.5V22.9545H20.7955C22.8864 22.9545 24.5985 22.6667 25.9318 22.0909C27.2652 21.5 28.25 20.6439 28.8864 19.5227C29.5379 18.3864 29.8636 16.9924 29.8636 15.3409C29.8636 13.6894 29.5379 12.2803 28.8864 11.1136C28.2348 9.93182 27.2424 9.03788 25.9091 8.43182C24.5758 7.81061 22.8561 7.5 20.75 7.5H13.0227V47H4.59091ZM28.6364 25.9091L40.1591 47H30.75L19.4318 25.9091H28.6364ZM50.9205 47.5C49.5417 47.5 48.3598 47.0152 47.375 46.0455C46.3902 45.0758 45.9053 43.8939 45.9205 42.5C45.9053 41.1364 46.3902 39.9697 47.375 39C48.3598 38.0303 49.5417 37.5455 50.9205 37.5455C52.2538 37.5455 53.4129 38.0303 54.3977 39C55.3977 39.9697 55.9053 41.1364 55.9205 42.5C55.9053 43.4242 55.6629 44.2652 55.1932 45.0227C54.7386 45.7803 54.1326 46.3864 53.375 46.8409C52.6326 47.2803 51.8144 47.5 50.9205 47.5Z" fill="#0DFF21" fill-opacity="0.2"/>
<path d="M4.59091 47V0.454544H22.0455C25.6212 0.454544 28.6212 1.07576 31.0455 2.31818C33.4849 3.5606 35.3258 5.30303 36.5682 7.54545C37.8258 9.77273 38.4545 12.3712 38.4545 15.3409C38.4545 18.3258 37.8182 20.9167 36.5455 23.1136C35.2879 25.2955 33.4318 26.9848 30.9773 28.1818C28.5227 29.3636 25.5076 29.9545 21.9318 29.9545H9.5V22.9545H20.7955C22.8864 22.9545 24.5985 22.6667 25.9318 22.0909C27.2652 21.5 28.25 20.6439 28.8864 19.5227C29.5379 18.3864 29.8636 16.9924 29.8636 15.3409C29.8636 13.6894 29.5379 12.2803 28.8864 11.1136C28.2348 9.93182 27.2424 9.03788 25.9091 8.43182C24.5758 7.81061 22.8561 7.5 20.75 7.5H13.0227V47H4.59091ZM28.6364 25.9091L40.1591 47H30.75L19.4318 25.9091H28.6364ZM50.9205 47.5C49.5417 47.5 48.3598 47.0152 47.375 46.0455C46.3902 45.0758 45.9053 43.8939 45.9205 42.5C45.9053 41.1364 46.3902 39.9697 47.375 39C48.3598 38.0303 49.5417 37.5455 50.9205 37.5455C52.2538 37.5455 53.4129 38.0303 54.3977 39C55.3977 39.9697 55.9053 41.1364 55.9205 42.5C55.9053 43.4242 55.6629 44.2652 55.1932 45.0227C54.7386 45.7803 54.1326 46.3864 53.375 46.8409C52.6326 47.2803 51.8144 47.5 50.9205 47.5Z" fill="#4A6638" fill-opacity="0.2"/>
</g>
<defs>
<filter id="filter0_d_2848_11070" x="0.59082" y="0.454529" width="59.3296" height="55.0455" filterUnits="userSpaceOnUse" color-interpolation-filters="sRGB">
<feFlood flood-opacity="0" result="BackgroundImageFix"/>
<feColorMatrix in="SourceAlpha" type="matrix" values="0 0 0 0 0 0 0 0 0 0 0 0 0 0 0 0 0 0 127 0" result="hardAlpha"/>
<feOffset dy="4"/>
<feGaussianBlur stdDeviation="2"/>
<feComposite in2="hardAlpha" operator="out"/>
<feColorMatrix type="matrix" values="0 0 0 0 1 0 0 0 0 1 0 0 0 0 1 0 0 0 0.25 0"/>
<feBlend mode="normal" in2="BackgroundImageFix" result="effect1_dropShadow_2848_11070"/>
<feBlend mode="normal" in="SourceGraphic" in2="effect1_dropShadow_2848_11070" result="shape"/>
</filter>
</defs>
</svg>
