<svg width="170" height="30" viewBox="0 0 170 30" fill="none" xmlns="http://www.w3.org/2000/svg">
<path d="M0.640625 0.25H8.17188C9.88021 0.25 11.3229 0.510417 12.5 1.03125C13.6875 1.55208 14.5885 2.32292 15.2031 3.34375C15.8281 4.35417 16.1406 5.59896 16.1406 7.07812C16.1406 8.11979 15.9271 9.07292 15.5 9.9375C15.0833 10.7917 14.4792 11.5208 13.6875 12.125C12.9062 12.7188 11.9688 13.1615 10.875 13.4531L10.0312 13.7812H2.95312L2.92188 11.3281H8.26562C9.34896 11.3281 10.25 11.1406 10.9688 10.7656C11.6875 10.3802 12.2292 9.86458 12.5938 9.21875C12.9583 8.57292 13.1406 7.85938 13.1406 7.07812C13.1406 6.20312 12.9688 5.4375 12.625 4.78125C12.2812 4.125 11.7396 3.61979 11 3.26562C10.2708 2.90104 9.32812 2.71875 8.17188 2.71875H3.65625V23H0.640625V0.25ZM13.9375 23L8.40625 12.6875L11.5469 12.6719L17.1562 22.8125V23H13.9375ZM55.5156 0.25H63.0469C64.7552 0.25 66.1979 0.510417 67.375 1.03125C68.5625 1.55208 69.4635 2.32292 70.0781 3.34375C70.7031 4.35417 71.0156 5.59896 71.0156 7.07812C71.0156 8.11979 70.8021 9.07292 70.375 9.9375C69.9583 10.7917 69.3542 11.5208 68.5625 12.125C67.7812 12.7188 66.8438 13.1615 65.75 13.4531L64.9062 13.7812H57.8281L57.7969 11.3281H63.1406C64.224 11.3281 65.125 11.1406 65.8438 10.7656C66.5625 10.3802 67.1042 9.86458 67.4688 9.21875C67.8333 8.57292 68.0156 7.85938 68.0156 7.07812C68.0156 6.20312 67.8438 5.4375 67.5 4.78125C67.1562 4.125 66.6146 3.61979 65.875 3.26562C65.1458 2.90104 64.2031 2.71875 63.0469 2.71875H58.5312V23H55.5156V0.25ZM68.8125 23L63.2812 12.6875L66.4219 12.6719L72.0312 22.8125V23H68.8125ZM125.094 2.26562L117.562 23H114.484L123.156 0.25H125.141L125.094 2.26562ZM131.406 23L123.859 2.26562L123.812 0.25H125.797L134.5 23H131.406ZM131.016 14.5781V17.0469H118.234V14.5781H131.016ZM145.938 14.0781H139.859V11.625H145.938C147.115 11.625 148.068 11.4375 148.797 11.0625C149.526 10.6875 150.057 10.1667 150.391 9.5C150.734 8.83333 150.906 8.07292 150.906 7.21875C150.906 6.4375 150.734 5.70312 150.391 5.01562C150.057 4.32812 149.526 3.77604 148.797 3.35938C148.068 2.93229 147.115 2.71875 145.938 2.71875H140.562V23H137.547V0.25H145.938C147.656 0.25 149.109 0.546875 150.297 1.14062C151.484 1.73438 152.385 2.55729 153 3.60938C153.615 4.65104 153.922 5.84375 153.922 7.1875C153.922 8.64583 153.615 9.89062 153 10.9219C152.385 11.9531 151.484 12.7396 150.297 13.2812C149.109 13.8125 147.656 14.0781 145.938 14.0781ZM160.969 0.25V23H157.953V0.25H160.969ZM166.062 21.4688C166.062 20.9792 166.214 20.5677 166.516 20.2344C166.828 19.8906 167.276 19.7188 167.859 19.7188C168.443 19.7188 168.885 19.8906 169.188 20.2344C169.5 20.5677 169.656 20.9792 169.656 21.4688C169.656 21.9479 169.5 22.3542 169.188 22.6875C168.885 23.0208 168.443 23.1875 167.859 23.1875C167.276 23.1875 166.828 23.0208 166.516 22.6875C166.214 22.3542 166.062 21.9479 166.062 21.4688Z" fill="#168700"/>
<path d="M26.9375 23.3125C25.7604 23.3125 24.6927 23.1146 23.7344 22.7188C22.7865 22.3125 21.9688 21.7448 21.2812 21.0156C20.6042 20.2865 20.0833 19.4219 19.7188 18.4219C19.3542 17.4219 19.1719 16.3281 19.1719 15.1406V14.4844C19.1719 13.1094 19.375 11.8854 19.7812 10.8125C20.1875 9.72917 20.7396 8.8125 21.4375 8.0625C22.1354 7.3125 22.9271 6.74479 23.8125 6.35938C24.6979 5.97396 25.6146 5.78125 26.5625 5.78125C27.7708 5.78125 28.8125 5.98958 29.6875 6.40625C30.5729 6.82292 31.2969 7.40625 31.8594 8.15625C32.4219 8.89583 32.8385 9.77083 33.1094 10.7812C33.3802 11.7812 33.5156 12.875 33.5156 14.0625V15.3594H20.8906V13H30.625V12.7812C30.5833 12.0312 30.4271 11.3021 30.1562 10.5938C29.8958 9.88542 29.4792 9.30208 28.9062 8.84375C28.3333 8.38542 27.5521 8.15625 26.5625 8.15625C25.9062 8.15625 25.3021 8.29688 24.75 8.57812C24.1979 8.84896 23.724 9.25521 23.3281 9.79688C22.9323 10.3385 22.625 11 22.4062 11.7812C22.1875 12.5625 22.0781 13.4635 22.0781 14.4844V15.1406C22.0781 15.9427 22.1875 16.6979 22.4062 17.4062C22.6354 18.1042 22.9635 18.7188 23.3906 19.25C23.8281 19.7812 24.3542 20.1979 24.9688 20.5C25.5938 20.8021 26.3021 20.9531 27.0938 20.9531C28.1146 20.9531 28.9792 20.7448 29.6875 20.3281C30.3958 19.9115 31.0156 19.3542 31.5469 18.6562L33.2969 20.0469C32.9323 20.599 32.4688 21.125 31.9062 21.625C31.3438 22.125 30.651 22.5312 29.8281 22.8438C29.0156 23.1562 28.0521 23.3125 26.9375 23.3125ZM47.5312 29.5V9.34375L47.7812 6.09375H50.4375V29.5H47.5312ZM36.1719 14.7344V14.4062C36.1719 13.1146 36.3229 11.9427 36.625 10.8906C36.9271 9.82812 37.3698 8.91667 37.9531 8.15625C38.5365 7.39583 39.2396 6.8125 40.0625 6.40625C40.8958 5.98958 41.8438 5.78125 42.9062 5.78125C43.9688 5.78125 44.901 5.96875 45.7031 6.34375C46.5156 6.70833 47.2031 7.24479 47.7656 7.95312C48.3385 8.65104 48.7917 9.49479 49.125 10.4844C49.4583 11.474 49.6875 12.5938 49.8125 13.8438V15.2812C49.6979 16.5208 49.474 17.6354 49.1406 18.625C48.8073 19.6146 48.3542 20.4583 47.7812 21.1562C47.2188 21.8542 46.526 22.3906 45.7031 22.7656C44.8906 23.1302 43.9479 23.3125 42.875 23.3125C41.8333 23.3125 40.8958 23.099 40.0625 22.6719C39.2396 22.2448 38.5365 21.6458 37.9531 20.875C37.3802 20.1042 36.9375 19.1979 36.625 18.1562C36.3229 17.1042 36.1719 15.9635 36.1719 14.7344ZM39.0781 14.4062V14.7344C39.0781 15.5781 39.1667 16.375 39.3438 17.125C39.5208 17.8646 39.7917 18.5208 40.1562 19.0938C40.5312 19.6667 41 20.1198 41.5625 20.4531C42.1354 20.776 42.8125 20.9375 43.5938 20.9375C44.5521 20.9375 45.349 20.7292 45.9844 20.3125C46.6302 19.8958 47.1458 19.349 47.5312 18.6719C47.9167 17.9844 48.2135 17.25 48.4219 16.4688V12.7031C48.3073 12.1302 48.125 11.5729 47.875 11.0312C47.6354 10.4896 47.3229 10.0052 46.9375 9.57812C46.5521 9.14062 46.0833 8.79688 45.5312 8.54688C44.9896 8.28646 44.3542 8.15625 43.625 8.15625C42.8333 8.15625 42.151 8.32292 41.5781 8.65625C41.0052 8.98958 40.5312 9.44792 40.1562 10.0312C39.7917 10.6042 39.5208 11.2656 39.3438 12.0156C39.1667 12.7656 39.0781 13.5625 39.0781 14.4062ZM81.8125 23.3125C80.6354 23.3125 79.5677 23.1146 78.6094 22.7188C77.6615 22.3125 76.8438 21.7448 76.1562 21.0156C75.4792 20.2865 74.9583 19.4219 74.5938 18.4219C74.2292 17.4219 74.0469 16.3281 74.0469 15.1406V14.4844C74.0469 13.1094 74.25 11.8854 74.6562 10.8125C75.0625 9.72917 75.6146 8.8125 76.3125 8.0625C77.0104 7.3125 77.8021 6.74479 78.6875 6.35938C79.5729 5.97396 80.4896 5.78125 81.4375 5.78125C82.6458 5.78125 83.6875 5.98958 84.5625 6.40625C85.4479 6.82292 86.1719 7.40625 86.7344 8.15625C87.2969 8.89583 87.7135 9.77083 87.9844 10.7812C88.2552 11.7812 88.3906 12.875 88.3906 14.0625V15.3594H75.7656V13H85.5V12.7812C85.4583 12.0312 85.3021 11.3021 85.0312 10.5938C84.7708 9.88542 84.3542 9.30208 83.7812 8.84375C83.2083 8.38542 82.4271 8.15625 81.4375 8.15625C80.7812 8.15625 80.1771 8.29688 79.625 8.57812C79.0729 8.84896 78.599 9.25521 78.2031 9.79688C77.8073 10.3385 77.5 11 77.2812 11.7812C77.0625 12.5625 76.9531 13.4635 76.9531 14.4844V15.1406C76.9531 15.9427 77.0625 16.6979 77.2812 17.4062C77.5104 18.1042 77.8385 18.7188 78.2656 19.25C78.7031 19.7812 79.2292 20.1979 79.8438 20.5C80.4688 20.8021 81.1771 20.9531 81.9688 20.9531C82.9896 20.9531 83.8542 20.7448 84.5625 20.3281C85.2708 19.9115 85.8906 19.3542 86.4219 18.6562L88.1719 20.0469C87.8073 20.599 87.3438 21.125 86.7812 21.625C86.2188 22.125 85.526 22.5312 84.7031 22.8438C83.8906 23.1562 82.9271 23.3125 81.8125 23.3125ZM101.609 18.5156C101.609 18.099 101.516 17.7135 101.328 17.3594C101.151 16.9948 100.781 16.6667 100.219 16.375C99.6667 16.0729 98.8333 15.8125 97.7188 15.5938C96.7812 15.3958 95.9323 15.1615 95.1719 14.8906C94.4219 14.6198 93.7812 14.2917 93.25 13.9062C92.7292 13.5208 92.3281 13.0677 92.0469 12.5469C91.7656 12.026 91.625 11.4167 91.625 10.7188C91.625 10.0521 91.7708 9.42188 92.0625 8.82812C92.3646 8.23438 92.7865 7.70833 93.3281 7.25C93.8802 6.79167 94.5417 6.43229 95.3125 6.17188C96.0833 5.91146 96.9427 5.78125 97.8906 5.78125C99.2448 5.78125 100.401 6.02083 101.359 6.5C102.318 6.97917 103.052 7.61979 103.562 8.42188C104.073 9.21354 104.328 10.0938 104.328 11.0625H101.438C101.438 10.5938 101.297 10.1406 101.016 9.70312C100.745 9.25521 100.344 8.88542 99.8125 8.59375C99.2917 8.30208 98.651 8.15625 97.8906 8.15625C97.0885 8.15625 96.4375 8.28125 95.9375 8.53125C95.4479 8.77083 95.0885 9.07812 94.8594 9.45312C94.6406 9.82812 94.5312 10.224 94.5312 10.6406C94.5312 10.9531 94.5833 11.2344 94.6875 11.4844C94.8021 11.724 95 11.9479 95.2812 12.1562C95.5625 12.3542 95.9583 12.5417 96.4688 12.7188C96.9792 12.8958 97.6302 13.0729 98.4219 13.25C99.8073 13.5625 100.948 13.9375 101.844 14.375C102.74 14.8125 103.406 15.349 103.844 15.9844C104.281 16.6198 104.5 17.3906 104.5 18.2969C104.5 19.0365 104.344 19.7135 104.031 20.3281C103.729 20.9427 103.286 21.474 102.703 21.9219C102.13 22.3594 101.443 22.7031 100.641 22.9531C99.849 23.1927 98.9583 23.3125 97.9688 23.3125C96.4792 23.3125 95.2188 23.0469 94.1875 22.5156C93.1562 21.9844 92.375 21.2969 91.8438 20.4531C91.3125 19.6094 91.0469 18.7188 91.0469 17.7812H93.9531C93.9948 18.5729 94.224 19.2031 94.6406 19.6719C95.0573 20.1302 95.5677 20.4583 96.1719 20.6562C96.776 20.8438 97.375 20.9375 97.9688 20.9375C98.7604 20.9375 99.4219 20.8333 99.9531 20.625C100.495 20.4167 100.906 20.1302 101.188 19.7656C101.469 19.401 101.609 18.9844 101.609 18.5156Z" fill="white"/>
</svg>
